# xmcd
#
# Track frame offsets:
# 150
# 114031
# 140429
# 236348
# 303615
#
# Disc length: 4630 seconds
#
# Revision: 0
# Processed by: cddbd v1.5.1PL0 Copyright (c) Steve Scherf et al.
# Submitted via: Audion 3.0.2 (http://www.panic.com/audion/)
#
DISCID=36121405
DTITLE=E.G. White/Eric Martin - Education
DYEAR=1900
DGENRE=
TTITLE0=An Illustraton of His Methods
TTITLE1=God is Nature
TTITLE2=Lessons of Life
TTITLE3=Other Object Lessons
TTITLE4=Mental and Spiritual Culture
EXTD=
EXTT0=
EXTT1=
EXTT2=
EXTT3=
EXTT4=
PLAYORDER=
